<?xml version="1.0" encoding="UTF-8" standalone="no"?>
<svg
   xmlns:dc="http://purl.org/dc/elements/1.1/"
   xmlns:cc="http://creativecommons.org/ns#"
   xmlns:rdf="http://www.w3.org/1999/02/22-rdf-syntax-ns#"
   xmlns:svg="http://www.w3.org/2000/svg"
   xmlns="http://www.w3.org/2000/svg"
   viewBox="0 0 6666.6665 6666.6665"
   height="5000"
   width="5000"
   xml:space="preserve"
   id="svg2"
   version="1.1"><metadata
     id="metadata8"><rdf:RDF><cc:Work
         rdf:about=""><dc:format>image/svg+xml</dc:format><dc:type
           rdf:resource="http://purl.org/dc/dcmitype/StillImage" /></cc:Work></rdf:RDF></metadata><defs
     id="defs6"><clipPath
       id="clipPath20"
       clipPathUnits="userSpaceOnUse"><path
         id="path18"
         d="M 0,5000 H 5000 V 0 H 0 Z" /></clipPath><clipPath
       id="clipPath30"
       clipPathUnits="userSpaceOnUse"><path
         id="path28"
         d="M 0,5000 H 5000 V 0 H 0 Z" /></clipPath></defs><g
     transform="matrix(1.3333333,0,0,-1.3333333,0,6666.6667)"
     id="g10"><g
       id="g14"><g
         clip-path="url(#clipPath20)"
         id="g16"><path
           id="path22"
           style="fill:none;stroke:none;stroke-width:0;stroke-linecap:butt;stroke-linejoin:miter;stroke-miterlimit:10;stroke-dasharray:none;stroke-opacity:1"
           d="M 5010,0 H 10 v 5000 h 5000 z" /></g></g><g
       id="g24"><g
         clip-path="url(#clipPath30)"
         id="g26"><g
           transform="translate(2128.6426,2499.9995)"
           id="g32"><path
             id="path34"
             style="fill:#884dff;fill-opacity:1;fill-rule:nonzero;stroke:none"
             d="m 0,0 c 0,-414.213 -335.787,-750 -750,-750 -414.213,0 -750,335.787 -750,750 0,414.213 335.787,750 750,750 C -335.787,750 0,414.213 0,0" /></g></g></g><text
       id="text42"
       style="font-variant:normal;font-weight:bold;font-stretch:normal;font-size:1296px;font-family:'DM Sans';-inkscape-font-specification:DMSans-Bold;writing-mode:lr-tb;fill:#393234;fill-opacity:1;fill-rule:nonzero;stroke:none"
       transform="matrix(1,0,0,-1,2182.6421,2034.3975)"><tspan
         id="tspan36"
         y="0"
         x="0">l</tspan><tspan
         id="tspan38"
         y="0"
         x="335.664" fill="#f05751">!</tspan><tspan
         id="tspan40"
         y="0"
         x="719.28003 1404.864">ve</tspan></text>
</g></svg>